<svg width="212" height="212" viewBox="0 0 212 212" fill="none" xmlns="http://www.w3.org/2000/svg">
<circle cx="107.926" cy="106" r="90" fill="#FFCBBA" fill-opacity="0.3"/>
<path fill-rule="evenodd" clip-rule="evenodd" d="M116 197.311C116 199.659 118.009 201.513 120.338 201.215C144.986 198.052 166.71 185.542 181.84 167.352C183.994 164.763 182.065 161 178.697 161C177.434 161 176.244 161.577 175.432 162.545C161.644 178.97 141.965 190.285 119.649 193.236C117.588 193.508 116 195.233 116 197.311Z" fill="#332D57"/>
<circle cx="107.926" cy="106" r="74" fill="#CD3D0D" stroke="#332D57" stroke-width="8"/>
<mask id="mask0_3_149" style="mask-type:alpha" maskUnits="userSpaceOnUse" x="37" y="36" width="141" height="140">
<circle cx="107.926" cy="106" r="70" fill="#F05927"/>
</mask>
<g mask="url(#mask0_3_149)">
<circle cx="91.9263" cy="106" r="70" fill="#F05927"/>
</g>
<path fill-rule="evenodd" clip-rule="evenodd" d="M83.9263 55.0474C83.9263 52.0875 80.9122 50.1004 78.3128 51.5162C65.0884 58.7193 54.7773 70.5968 49.5988 84.9295C48.687 87.453 50.6424 90.0001 53.3255 90.0001C55.1158 90.0001 56.6826 88.8281 57.3075 87.1505C61.8108 75.0624 70.5203 65.0222 81.6564 58.8097C83.0292 58.0439 83.9263 56.6193 83.9263 55.0474Z" fill="white"/>
<circle cx="48.9263" cy="99" r="4" fill="white"/>
<path fill-rule="evenodd" clip-rule="evenodd" d="M178.168 104.872C178.012 104.993 177.922 105.179 177.923 105.376L-nan -nanL177.923 105.376C177.927 105.72 177.647 106 177.302 106H176.993C176.792 106 176.598 106.064 176.436 106.184C161.694 117.123 140.617 127.182 115.959 133.789C89.3066 140.931 64.26 142.488 45.4564 139.534C36.0435 138.055 28.5772 135.506 23.2981 132.287C18.0672 129.098 15.3963 125.535 14.4379 121.958C13.4796 118.382 14.0113 113.961 16.9466 108.583C19.9091 103.156 25.1006 97.2152 32.513 91.2281C34.864 89.3292 37.4081 87.4501 40.1314 85.6038C40.8091 85.1444 41.3139 84.4717 41.5748 83.6956L-nan -nanL41.5748 83.6956C42.7233 80.2791 38.9115 76.7771 35.9231 78.7922C14.6235 93.155 2.90667 109.833 6.71052 124.029C13.2435 148.41 63.0828 156.239 118.03 141.516C172.977 126.793 212.224 95.0932 205.691 70.712C201.809 56.2239 182.635 47.5804 156.184 46.0406C152.593 45.8315 151.085 50.7701 153.802 53.128L-nan -nanL153.802 53.128C154.423 53.6668 155.208 53.9958 156.029 54.0455C159.858 54.2774 163.506 54.6668 166.945 55.2071C176.358 56.6858 183.825 59.2348 189.104 62.4537C194.335 65.6431 197.005 69.2059 197.964 72.7825C198.922 76.3591 198.39 80.7801 195.455 86.1576C192.493 91.5848 187.301 97.5255 179.889 103.513C179.326 103.967 178.752 104.42 178.168 104.872Z" fill="#332D57"/>
<circle cx="90.9263" cy="140.806" r="14" fill="#FFD136"/>
<path fill-rule="evenodd" clip-rule="evenodd" d="M79.4093 129.307C78.0378 126.931 74.7866 126.447 73.2941 128.748C71.1635 132.033 69.9263 135.952 69.9263 140.159C69.9263 151.757 79.3283 161.159 90.9263 161.159C102.524 161.159 111.926 151.757 111.926 140.159C111.926 128.561 102.524 119.159 90.9263 119.159C90.4339 119.159 89.9456 119.176 89.4617 119.209C86.7608 119.395 85.5964 122.416 86.9501 124.761L87.2327 125.25C87.9727 126.532 89.4462 127.159 90.9263 127.159C98.106 127.159 103.926 132.979 103.926 140.159C103.926 147.339 98.106 153.159 90.9263 153.159C83.7466 153.159 77.9263 147.339 77.9263 140.159C77.9263 138.082 78.4133 136.119 79.2795 134.378C80.0769 132.774 80.3046 130.858 79.4093 129.307Z" fill="#332D57"/>
<mask id="path-11-inside-1_3_149" fill="white">
<path d="M134.137 99.7726C134.816 101.875 137.079 103.045 139.121 102.2C144.812 99.8442 150.019 96.4572 154.48 92.2099C156.08 90.686 155.929 88.1431 154.282 86.6697C152.635 85.1963 150.117 85.3532 148.494 86.8525C145.01 90.0706 141.005 92.6754 136.65 94.5558C134.622 95.4319 133.457 97.6697 134.137 99.7726Z"/>
</mask>
<path d="M134.137 99.7726C134.816 101.875 137.079 103.045 139.121 102.2C144.812 99.8442 150.019 96.4572 154.48 92.2099C156.08 90.686 155.929 88.1431 154.282 86.6697C152.635 85.1963 150.117 85.3532 148.494 86.8525C145.01 90.0706 141.005 92.6754 136.65 94.5558C134.622 95.4319 133.457 97.6697 134.137 99.7726Z" stroke="#332D57" stroke-width="16" mask="url(#path-11-inside-1_3_149)"/>
<circle cx="117" cy="31" r="9" fill="#FFD136" stroke="#332D57" stroke-width="8"/>
<circle cx="191" cy="149" r="11" fill="#F17940"/>
<circle cx="32" cy="21" r="5" transform="rotate(180 32 21)" fill="#F96E52"/>
<circle cx="20" cy="34" r="6" transform="rotate(180 20 34)" fill="#FECD64"/>
<circle cx="35" cy="37" r="3" transform="rotate(180 35 37)" fill="#FECD64"/>
<circle cx="127" cy="103" r="3" fill="#332D57"/>
<circle cx="72" cy="107" r="2" fill="#332D57"/>
<circle cx="74" cy="96" r="4" fill="#332D57"/>
</svg>
