<svg width="214" height="212" viewBox="0 0 214 212" fill="none" xmlns="http://www.w3.org/2000/svg">
<path d="M102.741 88.8977L113.753 102.063M102.741 88.8977C99.6998 85.2623 94.2874 84.7804 90.652 87.8214L31.4086 137.378C31.4086 137.378 24.8253 142.883 35.8386 156.049C46.8518 169.215 53.4337 163.708 53.4337 163.708L112.677 114.152C116.313 111.111 116.794 105.698 113.753 102.063M102.741 88.8977L109.324 83.3923L120.337 96.5575L113.753 102.063M179.83 181.055L146.917 208.586L102.866 155.926L135.779 128.394L179.83 181.055ZM3.7531 37.4388L36.6661 9.90739L80.7164 62.5682L47.8034 90.0996L3.7531 37.4388ZM160.082 197.574L166.664 192.067L111.601 126.242L105.019 131.748L160.082 197.574ZM16.9183 26.4262L23.5009 20.92L78.5637 86.7459L71.9811 92.2522L16.9183 26.4262ZM142.487 189.915L136.98 183.332L156.728 166.813L162.234 173.396L142.487 189.915ZM41.0961 28.5789L46.6023 35.1615L26.8546 51.6803L21.3483 45.0977L41.0961 28.5789ZM125.968 170.167L120.461 163.584L140.209 147.066L145.715 153.648L125.968 170.167ZM57.6149 48.3267L63.1212 54.9093L43.3734 71.4281L37.8671 64.8455L57.6149 48.3267ZM121.413 84.4686C109.249 69.9267 104.325 54.0085 114.199 45.749C118.289 42.3279 128.997 53.4078 141.161 67.9497C153.325 82.4916 162.339 94.9886 158.249 98.4098C148.375 106.669 133.577 99.0104 121.413 84.4686Z" stroke="#003247" stroke-width="4"/>
<path d="M139.5 47C152.756 53.6945 157.696 59.6391 162.5 74" stroke="#003247" stroke-width="4"/>
<path d="M143.836 29.6154C166.453 41.8388 175.082 51.5809 182 75" stroke="#003247" stroke-width="4"/>
<path d="M143.137 9.87964C181.454 23.1435 192.995 38.9549 203 78" stroke="#003247" stroke-width="4"/>
</svg>
