<svg width="218" height="215" viewBox="0 0 218 215" fill="none" xmlns="http://www.w3.org/2000/svg">
<path d="M115.259 123.102L104.247 109.937M115.259 123.102C118.3 126.738 123.713 127.22 127.348 124.179L186.591 74.622C186.591 74.622 193.175 69.1165 182.161 55.9505C171.148 42.7845 164.566 48.2916 164.566 48.2916L105.323 97.8482C101.687 100.889 101.206 106.302 104.247 109.937M115.259 123.102L108.676 128.608L97.6634 115.443L104.247 109.937M38.1705 30.9451L71.0835 3.41368L115.134 56.0744L82.2208 83.6059L38.1705 30.9451ZM214.247 174.561L181.334 202.093L137.284 149.432L170.197 121.9L214.247 174.561ZM57.9183 14.4262L51.3357 19.9325L106.399 85.7585L112.981 80.2522L57.9183 14.4262ZM201.082 185.574L194.499 191.08L139.436 125.254L146.019 119.748L201.082 185.574ZM75.5135 22.0852L81.0198 28.6678L61.272 45.1866L55.7657 38.604L75.5135 22.0852ZM176.904 183.421L171.398 176.839L191.145 160.32L196.652 166.902L176.904 183.421ZM92.0323 41.8329L97.5386 48.4155L77.7908 64.9344L72.2846 58.3518L92.0323 41.8329ZM160.385 163.673L154.879 157.091L174.627 140.572L180.133 147.154L160.385 163.673ZM96.5871 127.531C108.751 142.073 113.675 157.992 103.801 166.251C99.7115 169.672 89.0034 158.592 76.8393 144.05C64.6751 129.508 55.6612 117.011 59.7511 113.59C69.625 105.331 84.4229 112.99 96.5871 127.531Z" stroke="#E8E8E4" stroke-width="4"/>
<path d="M74.2903 168C61.0339 161.305 56.094 155.361 51.2903 141" stroke="white" stroke-width="4"/>
<path d="M69.9546 185.385C47.3369 173.161 38.708 163.419 31.7903 140" stroke="white" stroke-width="4"/>
<path d="M70.6537 205.12C32.3365 191.857 20.7952 176.045 10.7903 137" stroke="white" stroke-width="4"/>
</svg>
